<svg xmlns="http://www.w3.org/2000/svg" width="347.937" height="214.438" viewBox="0 0 347.937 214.438">
  <defs>
    <style>
      .cls-1 {
        fill: #e4ad05;
        fill-rule: evenodd;
      }
    </style>
  </defs>
  <path id="Color" class="cls-1" d="M218.518,457.609s-2.781-2.073-1.032-4.039c0.864-.971-2.309-5.692-3.217-8.775s-2.091-8.592-.067-21.3c0.88-3.693,4.5-7.17,4.5-7.17s1.06-4.658,3.047-7.2c0,0,.2-10,5.571-12.472,0,0,.958-7.724,4.023-7.663,0,0,.155-7.9,1.2-11.591a14.5,14.5,0,0,1,8.911-9.986s5.065-3.125,6.358-3.261,4.376-.88,4.376-0.88,2.015-3.993,30.179-8.11l0.987-.948,0.038-1.936s-0.226-7.021,4.081-10.565a10.13,10.13,0,0,1,8.759-2.246s28.927-30.639,45.26-36.363l2.42,0.049c0.847,0.016,47.332-10.35,122.595-4.818l1.054-4.335,0.969,0.02-0.57,4.344s8.312,0.843,12.555,1.7,39.89,10.28,47.888,27.088c0,0,6.485,10,13.362,34.627a1.871,1.871,0,0,1,1.414,1.964,45.042,45.042,0,0,1,6.605,8.842s3.377,0.648,4.289,3.474,1.95,9.234.256,11.62c0,0,3.662,5.88,4.2,7.827s1.422,11.449.7,13.564a18.758,18.758,0,0,1,1.794,7.3c0.023,3.776-3.3,21.089-6.8,26.537,0,0,.756,25.811-7.361,32.3-2.824,2-14.743,2.6-14.743,2.6-4.737.049-10.273,0.965-12.293-17.033l-43.139,7.92s-3.4,31.911-24.7,37.9c-8.618,1.159-20.144,3.27-30.74.4s-17.981-15.119-19.018-17.8l-5.269-3.84-3-2.588-23.346.417s-5.341-.545-6.689.275c-1.326-.269-77-5.153-77-5.153s-5.941,14.08-17.469,15.544-35.5,2.551-45.881-23.427l-1.912-2.452S219.91,466.856,218.518,457.609Z" transform="translate(-213.094 -294)"/>
</svg>
